<?xml version="1.0" encoding="iso-8859-1"?>
<!-- Generator: Adobe Illustrator 19.0.0, SVG Export Plug-In . SVG Version: 6.00 Build 0)  -->
<svg xmlns="http://www.w3.org/2000/svg" version="1.1" xlink="http://www.w3.org/1999/xlink" xmlns:svgjs="http://svgjs.com/svgjs" width="43px" height="43px" viewBox="0 0 833.3330078125 833.3330078125">
	<g fill="#06cb48" fill-rule="evenodd" clip-rule="evenodd" stroke-linejoin="round" stroke-miterlimit="2">
		<path fill="none" d="M0 0h833.333v833.333H0z"></path>
		<path d="M275.57 515.79c6.33-40.06 16.63-79.33 32.82-116.5 18.68-42.9 45.48-83.07 83.53-110.49.86-.62 1.72-1.23 2.59-1.83l-1.44.99 55.24-67.28c-6.79-9.39-13.6-18.76-20.35-28.18-12.01-16.93-14.57-40.06-6.28-59.24 7.05-16.32 21.88-30.16 39.66-31.03 7.4-.36 14.85 1.41 21.37 5.02l66.94 37.52 1.33-.33c.42-.1.84-.2 1.25-.3 8.34-1.9 16.89-2.86 25.42-2.86h.64c16.62.14 33.86 1.43 49.67 5.85 19.27 5.38 36.96 15.96 50.97 30.49 3.8 3.97 7.52 8.01 11.76 11.47 9.18 7.51 20.07 12.89 31.63 15.71l57.97 13.98c3.16 1.16 4.15 1.21 6.78 3.42 4.81 4.02 6.9 10.85 5.35 17.31-8.71 36.41-34.18 67.48-69.42 81.27l-60.23 23.5-74.99 31.76c-.8 1.15-1.75 2.2-2.84 3.1l1.51 131.62c.32.32.64.65.96.98 33.3 34.91 45.9 89.82 28.58 136.96 23.39 14.78 38.38 42.29 38.46 69.72v.03c-.37 3.27-.19 4.21-1.65 7.23-2.15 4.47-6.41 7.9-11.31 9.02-1.21.27-2.47.27-3.7.41-83.12 0-166.28.18-249.43 0-42-.2-83.08-23.44-104.63-60.04-.17-.3-.35-.6-.52-.9-.18-.04-.35-.09-.53-.14-4.7-1.37-8.84-4.27-13.42-6.42-34.93-16.42-70.49-32.56-101.19-55.99-31.52-24.07-52.78-59.87-69.27-96.79-20.97-46.98-35.47-96.46-49.03-146.16-12.07-44.22-8.23-92.58 11.11-133.48 8.4-17.78 20.47-36.3 40.84-37.65.91-.06 1.82-.08 2.73-.07 16.63.25 31.97 10.08 45.34 20.44 36.13 28.03 64.17 66.91 79.51 108.66 11.93 32.46 17.08 66.79 24.67 100.87 6.59 29.58 13.87 59.09 21.6 88.35zm264.86-338.08c-.36-.17-.71-.34-1.07-.49-24.34-13.65-48.48-27.67-73.03-40.93-.96-.51-2.03-.78-3.13-.77-1.58.02-3.04.55-4.28 1.66-3.01 2.7-4.19 4.55-5.57 7.09-4.88 8.98-4.19 20.59 1.86 29.03l27.64 38.28c1.81 3.19 3.25 6.67 3.14 10.27-.11 3.63-1.75 6.96-3.77 10.06l-64.86 79c-3.46 3.66-8.1 6.4-12.23 9.71-36.04 28.89-59.74 71.34-75.36 115.28-19.06 53.63-26.76 111.36-29.07 167.91-3.1 33.8 13.6 68.64 43.71 86.06 13.31 7.7 28.74 11.83 44.07 11.91 4.95.01 9.9.02 14.85.02-9.57-9.12-17.9-19.65-24.71-31.26 0 0-2.19-4.07-2.43-7.63-.58-8.77 6.76-17.34 15.87-17.75.47-.02.93-.02 1.4-.01 2.14.13 2.5.26 3.45.5 7 1.77 10.77 9.02 14.84 14.93 13.51 19.6 33.66 34.91 56.59 41.24 28.06-.01 56.11-.04 84.17-.04h65.71c-.09-.27-.19-.53-.29-.8-5.05-13.17-15.94-23.93-29.31-28.78l-3.6-1.83c-2.05-1.77-4.12-3.59-5.39-5.96-1.94-3.6-2.46-7.9-1.52-11.8.42-1.71 1.22-3.37 1.94-4.78 19.27-37.92 11.17-87.38-20.96-117.21l-.49-.45-1.18-1.32a34.63 34.63 0 0 1-2.53-1.89c-28.09-23.19-69.37-29.03-102.86-14.14-10.2 4.53-19.6 10.83-27.73 18.5l-1.19 1.08c-7.94 6.3-21.04 4.06-25.69-5.35-3.23-6.52-1.39-14.89 3.98-19.96.66-.62 1.31-1.23 1.98-1.83 23.73-21.52 55.46-34 87.86-34.24h1.21c20.98.09 41.78 5.31 60.38 14.91l-1.3-113.49-81.47-46.42c-.62-.37-.79-.45-1.38-.88-7.09-5.02-9.14-15.99-3.93-23.28.42-.6.55-.73 1.01-1.29l44.54-50.92c3.42-3.72 8.17-5.78 13.3-5.68 10.02.71 18.06 11.14 15.31 21.09-.45 1.6-1.13 3.14-2.03 4.54-.44.7-.96 1.35-1.49 1.99l-31.11 35.57 68.51 39.03 77.42-32.79c20.4-7.96 40.85-15.79 61.2-23.88 19.31-7.73 35.36-23.34 43.6-42.55-15.11-3.64-30.66-6.36-45.43-11-11.46 22.69-28.7 42.88-51.55 52.6-20.03 8.52-43.85 9.31-63.42-.53-19.63-9.87-29.01-37.31-15.46-58.41 7.06-11 18.71-18.5 29.77-24.42 9.18-4.99 16.95-12.54 22.76-21.18-8.48-4.03-17.67-6.58-27.13-7.42-2.14-.18-4.27-.38-6.4-.57 5.43 6.98 4.56 18.59-3.22 24.12-5.36 3.8-13.01 3.92-18.62.46l-35.88-22.91zM240.87 513.36l-94.85 21.36c9.82 17.26 21.4 33.44 37.3 46.46 25.32 20.75 54.9 35.09 84.8 49.09-.99-6.97-1.39-14.05-1.16-21.13-.9-2.71-1.52-5.56-2.33-8.33-8.48-28.96-16.21-58.18-23.76-87.45zm-42.36-173.38l-115.74 23c8.01 29.25 16.26 58.66 26.24 87.43l110.26-25.94c-2.59-11.86-5.12-23.77-7.68-35.69-3.56-16.48-7.47-33-13.08-48.8zm418.01-97.19c0 10.14 8.22 18.36 18.36 18.36 10.14 0 18.36-8.22 18.36-18.36 0-10.14-8.22-18.36-18.36-18.36-10.14 0-18.36 8.22-18.36 18.36z"></path>
	</g>
</svg>